<mxfile host="app.diagrams.net" modified="2022-02-08T11:52:46.386Z" agent="5.0 (Macintosh; Intel Mac OS X 10_15_7) AppleWebKit/605.1.15 (KHTML, like Gecko) Version/15.1 Safari/605.1.15" etag="-U5R99v9If6mUgz_nE4n" version="16.5.3" type="github">
  <diagram id="wGl1HGKmEVQ6J3oyMV2m" name="Page-1">
    <mxGraphModel dx="1351" dy="1861" grid="1" gridSize="10" guides="1" tooltips="1" connect="1" arrows="1" fold="1" page="1" pageScale="1" pageWidth="850" pageHeight="1100" math="0" shadow="0">
      <root>
        <mxCell id="0" />
        <mxCell id="1" parent="0" />
        <mxCell id="vo52Kp6zUDg0ikScM-PI-1" value="&lt;font color=&quot;#ffffff&quot;&gt;Start&lt;/font&gt;" style="rounded=1;whiteSpace=wrap;html=1;fillColor=#FFB570;" parent="1" vertex="1">
          <mxGeometry x="365" y="-110" width="120" height="60" as="geometry" />
        </mxCell>
        <mxCell id="vo52Kp6zUDg0ikScM-PI-2" value="" style="endArrow=classic;html=1;rounded=0;fontColor=#FFFFFF;exitX=0.5;exitY=1;exitDx=0;exitDy=0;" parent="1" source="vo52Kp6zUDg0ikScM-PI-1" edge="1">
          <mxGeometry width="50" height="50" relative="1" as="geometry">
            <mxPoint x="390" y="150" as="sourcePoint" />
            <mxPoint x="425" as="targetPoint" />
          </mxGeometry>
        </mxCell>
        <mxCell id="vo52Kp6zUDg0ikScM-PI-3" value="Answer the &amp;nbsp;question:&lt;br&gt;What is the capital of the US?" style="rounded=0;whiteSpace=wrap;html=1;fontColor=#FFFFFF;fillColor=#97D077;" parent="1" vertex="1">
          <mxGeometry x="363" y="120" width="125" height="60" as="geometry" />
        </mxCell>
        <mxCell id="vo52Kp6zUDg0ikScM-PI-4" value="Choose the answer:&lt;br&gt;London&lt;br&gt;Moscow&lt;br&gt;Washington" style="rounded=0;whiteSpace=wrap;html=1;fontColor=#FFFFFF;fillColor=#97D077;" parent="1" vertex="1">
          <mxGeometry x="365" y="220" width="120" height="60" as="geometry" />
        </mxCell>
        <mxCell id="vo52Kp6zUDg0ikScM-PI-5" value="" style="endArrow=classic;html=1;rounded=0;fontColor=#FFFFFF;exitX=0.5;exitY=1;exitDx=0;exitDy=0;" parent="1" edge="1">
          <mxGeometry width="50" height="50" relative="1" as="geometry">
            <mxPoint x="424" y="179.9999999999999" as="sourcePoint" />
            <mxPoint x="424" y="219.9999999999999" as="targetPoint" />
          </mxGeometry>
        </mxCell>
        <mxCell id="vo52Kp6zUDg0ikScM-PI-6" value="" style="endArrow=classic;html=1;rounded=0;fontColor=#FFFFFF;exitX=0.5;exitY=1;exitDx=0;exitDy=0;" parent="1" edge="1">
          <mxGeometry width="50" height="50" relative="1" as="geometry">
            <mxPoint x="424" y="280" as="sourcePoint" />
            <mxPoint x="424" y="320" as="targetPoint" />
          </mxGeometry>
        </mxCell>
        <mxCell id="vo52Kp6zUDg0ikScM-PI-7" value="Enter the answer" style="shape=parallelogram;perimeter=parallelogramPerimeter;whiteSpace=wrap;html=1;fixedSize=1;fontColor=#FFFFFF;fillColor=#7EA6E0;" parent="1" vertex="1">
          <mxGeometry x="343" y="320" width="165" height="60" as="geometry" />
        </mxCell>
        <mxCell id="vo52Kp6zUDg0ikScM-PI-8" value="" style="endArrow=classic;html=1;rounded=0;fontColor=#FFFFFF;exitX=0.5;exitY=1;exitDx=0;exitDy=0;" parent="1" edge="1">
          <mxGeometry width="50" height="50" relative="1" as="geometry">
            <mxPoint x="424" y="380" as="sourcePoint" />
            <mxPoint x="424" y="420" as="targetPoint" />
          </mxGeometry>
        </mxCell>
        <mxCell id="vo52Kp6zUDg0ikScM-PI-9" value="Is the&amp;nbsp;answer&amp;nbsp;&lt;br&gt;equal to &quot;Washington&quot;?" style="rhombus;whiteSpace=wrap;html=1;fontColor=#FFFFFF;fillColor=#B5739D;" parent="1" vertex="1">
          <mxGeometry x="340.5" y="420" width="170" height="100" as="geometry" />
        </mxCell>
        <mxCell id="vo52Kp6zUDg0ikScM-PI-10" value="&lt;font color=&quot;#000000&quot;&gt;YES&lt;/font&gt;" style="endArrow=classic;html=1;rounded=0;fontColor=#FFFFFF;exitX=0;exitY=0.5;exitDx=0;exitDy=0;" parent="1" edge="1" source="vo52Kp6zUDg0ikScM-PI-9">
          <mxGeometry width="50" height="50" relative="1" as="geometry">
            <mxPoint x="422.4999999999998" y="520" as="sourcePoint" />
            <mxPoint x="279.9999999999998" y="610" as="targetPoint" />
            <Array as="points">
              <mxPoint x="280" y="470" />
            </Array>
          </mxGeometry>
        </mxCell>
        <mxCell id="vo52Kp6zUDg0ikScM-PI-12" value="" style="endArrow=classic;html=1;rounded=0;fontColor=#FFFFFF;exitX=1;exitY=0.5;exitDx=0;exitDy=0;" parent="1" edge="1" source="vo52Kp6zUDg0ikScM-PI-9">
          <mxGeometry width="50" height="50" relative="1" as="geometry">
            <mxPoint x="422.4999999999998" y="520" as="sourcePoint" />
            <mxPoint x="480" y="760" as="targetPoint" />
            <Array as="points">
              <mxPoint x="560" y="470" />
              <mxPoint x="560" y="760" />
            </Array>
          </mxGeometry>
        </mxCell>
        <mxCell id="vo52Kp6zUDg0ikScM-PI-13" value="&lt;font color=&quot;#000000&quot;&gt;NO&lt;/font&gt;" style="edgeLabel;html=1;align=center;verticalAlign=middle;resizable=0;points=[];fontColor=#FFFFFF;" parent="vo52Kp6zUDg0ikScM-PI-12" vertex="1" connectable="0">
          <mxGeometry x="-0.1429" y="-3" relative="1" as="geometry">
            <mxPoint x="1" as="offset" />
          </mxGeometry>
        </mxCell>
        <mxCell id="vo52Kp6zUDg0ikScM-PI-15" value="" style="endArrow=classic;html=1;rounded=0;fontColor=#000000;exitX=0.5;exitY=1;exitDx=0;exitDy=0;" parent="1" edge="1">
          <mxGeometry width="50" height="50" relative="1" as="geometry">
            <mxPoint x="275" y="670" as="sourcePoint" />
            <mxPoint x="349.9999999999998" y="760" as="targetPoint" />
            <Array as="points">
              <mxPoint x="275" y="760" />
            </Array>
          </mxGeometry>
        </mxCell>
        <mxCell id="bMW6HTDr2u291C3FKjnE-1" value="counter = 0" style="shape=parallelogram;perimeter=parallelogramPerimeter;whiteSpace=wrap;html=1;fixedSize=1;fontColor=#FFFFFF;fillColor=#7EA6E0;" parent="1" vertex="1">
          <mxGeometry x="343" width="165" height="60" as="geometry" />
        </mxCell>
        <mxCell id="bMW6HTDr2u291C3FKjnE-2" value="" style="endArrow=classic;html=1;rounded=0;fontColor=#FFFFFF;entryX=0.5;entryY=0;entryDx=0;entryDy=0;" parent="1" target="vo52Kp6zUDg0ikScM-PI-3" edge="1">
          <mxGeometry width="50" height="50" relative="1" as="geometry">
            <mxPoint x="426" y="60" as="sourcePoint" />
            <mxPoint x="422.41" y="109.99999999999977" as="targetPoint" />
          </mxGeometry>
        </mxCell>
        <mxCell id="bMW6HTDr2u291C3FKjnE-4" value="counter = counter + 1" style="rounded=0;whiteSpace=wrap;html=1;fontColor=#FFFFFF;fillColor=#97D077;" parent="1" vertex="1">
          <mxGeometry x="218" y="610" width="125" height="60" as="geometry" />
        </mxCell>
        <mxCell id="bMW6HTDr2u291C3FKjnE-6" value="Answer the &amp;nbsp;question:&lt;br&gt;What is the capital of the UK?" style="rounded=0;whiteSpace=wrap;html=1;fontColor=#FFFFFF;fillColor=#97D077;" parent="1" vertex="1">
          <mxGeometry x="355" y="730" width="125" height="60" as="geometry" />
        </mxCell>
        <mxCell id="bMW6HTDr2u291C3FKjnE-7" value="Choose the answer:&lt;br&gt;London&lt;br&gt;Moscow&lt;br&gt;Washington" style="rounded=0;whiteSpace=wrap;html=1;fontColor=#FFFFFF;fillColor=#97D077;" parent="1" vertex="1">
          <mxGeometry x="357" y="830" width="120" height="60" as="geometry" />
        </mxCell>
        <mxCell id="bMW6HTDr2u291C3FKjnE-8" value="" style="endArrow=classic;html=1;rounded=0;fontColor=#FFFFFF;exitX=0.5;exitY=1;exitDx=0;exitDy=0;" parent="1" edge="1">
          <mxGeometry width="50" height="50" relative="1" as="geometry">
            <mxPoint x="416" y="790" as="sourcePoint" />
            <mxPoint x="416" y="830" as="targetPoint" />
          </mxGeometry>
        </mxCell>
        <mxCell id="bMW6HTDr2u291C3FKjnE-9" value="" style="endArrow=classic;html=1;rounded=0;fontColor=#FFFFFF;exitX=0.5;exitY=1;exitDx=0;exitDy=0;" parent="1" edge="1">
          <mxGeometry width="50" height="50" relative="1" as="geometry">
            <mxPoint x="416" y="890" as="sourcePoint" />
            <mxPoint x="416" y="930" as="targetPoint" />
          </mxGeometry>
        </mxCell>
        <mxCell id="bMW6HTDr2u291C3FKjnE-10" value="Enter the answer" style="shape=parallelogram;perimeter=parallelogramPerimeter;whiteSpace=wrap;html=1;fixedSize=1;fontColor=#FFFFFF;fillColor=#7EA6E0;" parent="1" vertex="1">
          <mxGeometry x="335" y="930" width="165" height="60" as="geometry" />
        </mxCell>
        <mxCell id="bMW6HTDr2u291C3FKjnE-11" value="" style="endArrow=classic;html=1;rounded=0;fontColor=#FFFFFF;exitX=0.5;exitY=1;exitDx=0;exitDy=0;" parent="1" edge="1">
          <mxGeometry width="50" height="50" relative="1" as="geometry">
            <mxPoint x="416" y="990" as="sourcePoint" />
            <mxPoint x="416" y="1030" as="targetPoint" />
          </mxGeometry>
        </mxCell>
        <mxCell id="bMW6HTDr2u291C3FKjnE-12" value="Is the&amp;nbsp;answer&amp;nbsp;&lt;br&gt;equal to &quot;London&quot;?" style="rhombus;whiteSpace=wrap;html=1;fontColor=#FFFFFF;fillColor=#B5739D;" parent="1" vertex="1">
          <mxGeometry x="332.5" y="1030" width="170" height="100" as="geometry" />
        </mxCell>
        <mxCell id="bMW6HTDr2u291C3FKjnE-13" value="&lt;font color=&quot;#000000&quot;&gt;YES&lt;/font&gt;" style="endArrow=classic;html=1;rounded=0;fontColor=#FFFFFF;exitX=0;exitY=0.5;exitDx=0;exitDy=0;" parent="1" edge="1" source="bMW6HTDr2u291C3FKjnE-12">
          <mxGeometry width="50" height="50" relative="1" as="geometry">
            <mxPoint x="414.4999999999998" y="1130" as="sourcePoint" />
            <mxPoint x="271.9999999999998" y="1220" as="targetPoint" />
            <Array as="points">
              <mxPoint x="272" y="1080" />
            </Array>
          </mxGeometry>
        </mxCell>
        <mxCell id="bMW6HTDr2u291C3FKjnE-14" value="" style="endArrow=classic;html=1;rounded=0;fontColor=#FFFFFF;exitX=1;exitY=0.5;exitDx=0;exitDy=0;" parent="1" edge="1" source="bMW6HTDr2u291C3FKjnE-12">
          <mxGeometry width="50" height="50" relative="1" as="geometry">
            <mxPoint x="414.4999999999998" y="1130" as="sourcePoint" />
            <mxPoint x="471.9999999999998" y="1370" as="targetPoint" />
            <Array as="points">
              <mxPoint x="552" y="1080" />
              <mxPoint x="552" y="1370" />
            </Array>
          </mxGeometry>
        </mxCell>
        <mxCell id="bMW6HTDr2u291C3FKjnE-15" value="&lt;font color=&quot;#000000&quot;&gt;NO&lt;/font&gt;" style="edgeLabel;html=1;align=center;verticalAlign=middle;resizable=0;points=[];fontColor=#FFFFFF;" parent="bMW6HTDr2u291C3FKjnE-14" vertex="1" connectable="0">
          <mxGeometry x="-0.1429" y="-3" relative="1" as="geometry">
            <mxPoint x="1" as="offset" />
          </mxGeometry>
        </mxCell>
        <mxCell id="bMW6HTDr2u291C3FKjnE-16" value="" style="endArrow=classic;html=1;rounded=0;fontColor=#000000;exitX=0.5;exitY=1;exitDx=0;exitDy=0;" parent="1" edge="1">
          <mxGeometry width="50" height="50" relative="1" as="geometry">
            <mxPoint x="266.9999999999998" y="1280" as="sourcePoint" />
            <mxPoint x="341.9999999999998" y="1370" as="targetPoint" />
            <Array as="points">
              <mxPoint x="267" y="1370" />
            </Array>
          </mxGeometry>
        </mxCell>
        <mxCell id="bMW6HTDr2u291C3FKjnE-17" value="counter = counter + 1" style="rounded=0;whiteSpace=wrap;html=1;fontColor=#FFFFFF;fillColor=#97D077;" parent="1" vertex="1">
          <mxGeometry x="210" y="1220" width="125" height="60" as="geometry" />
        </mxCell>
        <mxCell id="bMW6HTDr2u291C3FKjnE-18" value="Answer the &amp;nbsp;question:&lt;br&gt;What is the capital of Russia?" style="rounded=0;whiteSpace=wrap;html=1;fontColor=#FFFFFF;fillColor=#97D077;" parent="1" vertex="1">
          <mxGeometry x="345" y="1340" width="125" height="60" as="geometry" />
        </mxCell>
        <mxCell id="bMW6HTDr2u291C3FKjnE-19" value="Choose the answer:&lt;br&gt;1 - London&lt;br&gt;2 - Moscow&lt;br&gt;3 - Washington" style="rounded=0;whiteSpace=wrap;html=1;fontColor=#FFFFFF;fillColor=#97D077;" parent="1" vertex="1">
          <mxGeometry x="347" y="1440" width="120" height="60" as="geometry" />
        </mxCell>
        <mxCell id="bMW6HTDr2u291C3FKjnE-20" value="" style="endArrow=classic;html=1;rounded=0;fontColor=#FFFFFF;exitX=0.5;exitY=1;exitDx=0;exitDy=0;" parent="1" edge="1">
          <mxGeometry width="50" height="50" relative="1" as="geometry">
            <mxPoint x="406" y="1400" as="sourcePoint" />
            <mxPoint x="406" y="1440" as="targetPoint" />
          </mxGeometry>
        </mxCell>
        <mxCell id="bMW6HTDr2u291C3FKjnE-21" value="" style="endArrow=classic;html=1;rounded=0;fontColor=#FFFFFF;exitX=0.5;exitY=1;exitDx=0;exitDy=0;" parent="1" edge="1">
          <mxGeometry width="50" height="50" relative="1" as="geometry">
            <mxPoint x="406" y="1500" as="sourcePoint" />
            <mxPoint x="406" y="1540" as="targetPoint" />
          </mxGeometry>
        </mxCell>
        <mxCell id="bMW6HTDr2u291C3FKjnE-22" value="Enter the answer" style="shape=parallelogram;perimeter=parallelogramPerimeter;whiteSpace=wrap;html=1;fixedSize=1;fontColor=#FFFFFF;fillColor=#7EA6E0;" parent="1" vertex="1">
          <mxGeometry x="325" y="1540" width="165" height="60" as="geometry" />
        </mxCell>
        <mxCell id="bMW6HTDr2u291C3FKjnE-23" value="" style="endArrow=classic;html=1;rounded=0;fontColor=#FFFFFF;exitX=0.5;exitY=1;exitDx=0;exitDy=0;" parent="1" edge="1">
          <mxGeometry width="50" height="50" relative="1" as="geometry">
            <mxPoint x="406" y="1600" as="sourcePoint" />
            <mxPoint x="406" y="1640" as="targetPoint" />
          </mxGeometry>
        </mxCell>
        <mxCell id="bMW6HTDr2u291C3FKjnE-24" value="Is the&amp;nbsp;answer&amp;nbsp;&lt;br&gt;equal to &quot;Moscow&quot;?" style="rhombus;whiteSpace=wrap;html=1;fontColor=#FFFFFF;fillColor=#B5739D;" parent="1" vertex="1">
          <mxGeometry x="322.5" y="1640" width="170" height="100" as="geometry" />
        </mxCell>
        <mxCell id="bMW6HTDr2u291C3FKjnE-25" value="&lt;font color=&quot;#000000&quot;&gt;YES&lt;/font&gt;" style="endArrow=classic;html=1;rounded=0;fontColor=#FFFFFF;" parent="1" edge="1">
          <mxGeometry width="50" height="50" relative="1" as="geometry">
            <mxPoint x="320" y="1690" as="sourcePoint" />
            <mxPoint x="261.9999999999998" y="1830" as="targetPoint" />
            <Array as="points">
              <mxPoint x="262" y="1690" />
            </Array>
          </mxGeometry>
        </mxCell>
        <mxCell id="bMW6HTDr2u291C3FKjnE-26" value="" style="endArrow=classic;html=1;rounded=0;fontColor=#FFFFFF;exitX=1;exitY=0.5;exitDx=0;exitDy=0;" parent="1" edge="1" target="bMW6HTDr2u291C3FKjnE-31" source="bMW6HTDr2u291C3FKjnE-24">
          <mxGeometry width="50" height="50" relative="1" as="geometry">
            <mxPoint x="404.4999999999998" y="1740" as="sourcePoint" />
            <mxPoint x="461.9999999999998" y="1980" as="targetPoint" />
            <Array as="points">
              <mxPoint x="542" y="1690" />
              <mxPoint x="542" y="1980" />
            </Array>
          </mxGeometry>
        </mxCell>
        <mxCell id="bMW6HTDr2u291C3FKjnE-27" value="&lt;font color=&quot;#000000&quot;&gt;NO&lt;/font&gt;" style="edgeLabel;html=1;align=center;verticalAlign=middle;resizable=0;points=[];fontColor=#FFFFFF;" parent="bMW6HTDr2u291C3FKjnE-26" vertex="1" connectable="0">
          <mxGeometry x="-0.1429" y="-3" relative="1" as="geometry">
            <mxPoint x="1" as="offset" />
          </mxGeometry>
        </mxCell>
        <mxCell id="bMW6HTDr2u291C3FKjnE-28" value="" style="endArrow=classic;html=1;rounded=0;fontColor=#000000;exitX=0.5;exitY=1;exitDx=0;exitDy=0;" parent="1" edge="1">
          <mxGeometry width="50" height="50" relative="1" as="geometry">
            <mxPoint x="256.9999999999998" y="1890" as="sourcePoint" />
            <mxPoint x="331.9999999999998" y="1980" as="targetPoint" />
            <Array as="points">
              <mxPoint x="257" y="1980" />
            </Array>
          </mxGeometry>
        </mxCell>
        <mxCell id="bMW6HTDr2u291C3FKjnE-29" value="counter = counter + 1" style="rounded=0;whiteSpace=wrap;html=1;fontColor=#FFFFFF;fillColor=#97D077;" parent="1" vertex="1">
          <mxGeometry x="200" y="1830" width="125" height="60" as="geometry" />
        </mxCell>
        <mxCell id="bMW6HTDr2u291C3FKjnE-31" value="Output:&lt;br&gt;The number of correct answers is (counter)" style="shape=parallelogram;perimeter=parallelogramPerimeter;whiteSpace=wrap;html=1;fixedSize=1;fontColor=#FFFFFF;fillColor=#7EA6E0;" parent="1" vertex="1">
          <mxGeometry x="322.5" y="1950" width="157.5" height="60" as="geometry" />
        </mxCell>
        <mxCell id="bMW6HTDr2u291C3FKjnE-32" value="" style="endArrow=classic;html=1;rounded=0;exitX=0.5;exitY=1;exitDx=0;exitDy=0;" parent="1" source="bMW6HTDr2u291C3FKjnE-31" edge="1">
          <mxGeometry width="50" height="50" relative="1" as="geometry">
            <mxPoint x="360" y="2130" as="sourcePoint" />
            <mxPoint x="401" y="2080" as="targetPoint" />
          </mxGeometry>
        </mxCell>
        <mxCell id="bMW6HTDr2u291C3FKjnE-33" value="&lt;font color=&quot;#ffffff&quot;&gt;End&lt;/font&gt;" style="rounded=1;whiteSpace=wrap;html=1;fillColor=#FFB570;" parent="1" vertex="1">
          <mxGeometry x="340.5" y="2080" width="120" height="60" as="geometry" />
        </mxCell>
      </root>
    </mxGraphModel>
  </diagram>
</mxfile>
